<mxfile host="app.diagrams.net" modified="2023-12-05T19:25:29.733Z" agent="Mozilla/5.0 (Windows NT 10.0; Win64; x64) AppleWebKit/537.36 (KHTML, like Gecko) Chrome/119.0.0.0 Safari/537.36" etag="B7PYVl3765Eps1UjNs1g" version="22.1.5" type="device">
  <diagram name="Trang-1" id="bI-7f7n41HZm7Pz8XbZy">
    <mxGraphModel dx="1793" dy="988" grid="1" gridSize="10" guides="1" tooltips="1" connect="1" arrows="1" fold="1" page="1" pageScale="1" pageWidth="827" pageHeight="583" math="0" shadow="0">
      <root>
        <mxCell id="0" />
        <mxCell id="1" parent="0" />
        <mxCell id="8zskojbhSe-D6UPvyP1b-37" style="rounded=0;orthogonalLoop=1;jettySize=auto;html=1;exitX=1;exitY=0.25;exitDx=0;exitDy=0;entryX=0;entryY=0.5;entryDx=0;entryDy=0;endArrow=none;endFill=0;startArrow=ERmany;startFill=0;" parent="1" source="8zskojbhSe-D6UPvyP1b-1" target="8zskojbhSe-D6UPvyP1b-36" edge="1">
          <mxGeometry relative="1" as="geometry">
            <mxPoint x="780" y="498.5" as="targetPoint" />
          </mxGeometry>
        </mxCell>
        <mxCell id="8zskojbhSe-D6UPvyP1b-52" style="rounded=0;orthogonalLoop=1;jettySize=auto;html=1;exitX=0.75;exitY=1;exitDx=0;exitDy=0;entryX=0;entryY=0;entryDx=0;entryDy=0;endArrow=none;endFill=0;" parent="1" source="8zskojbhSe-D6UPvyP1b-1" target="En_QdP-Jk4BKVafIsAyR-9" edge="1">
          <mxGeometry relative="1" as="geometry">
            <mxPoint x="856.6666666666665" y="853.3333333333333" as="targetPoint" />
          </mxGeometry>
        </mxCell>
        <mxCell id="iyGiSDFssS-rW3oIlz8F-6" style="rounded=0;orthogonalLoop=1;jettySize=auto;html=1;exitX=1;exitY=0.5;exitDx=0;exitDy=0;entryX=0;entryY=0.5;entryDx=0;entryDy=0;endArrow=none;endFill=0;" edge="1" parent="1" source="8zskojbhSe-D6UPvyP1b-1" target="iyGiSDFssS-rW3oIlz8F-1">
          <mxGeometry relative="1" as="geometry" />
        </mxCell>
        <mxCell id="8zskojbhSe-D6UPvyP1b-1" value="Nhân viên" style="rounded=1;whiteSpace=wrap;html=1;" parent="1" vertex="1">
          <mxGeometry x="520" y="562" width="120" height="60" as="geometry" />
        </mxCell>
        <mxCell id="8zskojbhSe-D6UPvyP1b-27" style="rounded=0;orthogonalLoop=1;jettySize=auto;html=1;exitX=1;exitY=1;exitDx=0;exitDy=0;entryX=0.25;entryY=0;entryDx=0;entryDy=0;endArrow=none;endFill=0;" parent="1" source="8zskojbhSe-D6UPvyP1b-3" target="8zskojbhSe-D6UPvyP1b-1" edge="1">
          <mxGeometry relative="1" as="geometry" />
        </mxCell>
        <mxCell id="8zskojbhSe-D6UPvyP1b-3" value="Tên" style="ellipse;whiteSpace=wrap;html=1;" parent="1" vertex="1">
          <mxGeometry x="280" y="322" width="120" height="80" as="geometry" />
        </mxCell>
        <mxCell id="8zskojbhSe-D6UPvyP1b-26" style="rounded=0;orthogonalLoop=1;jettySize=auto;html=1;exitX=0.5;exitY=1;exitDx=0;exitDy=0;entryX=0.5;entryY=0;entryDx=0;entryDy=0;endArrow=none;endFill=0;" parent="1" source="8zskojbhSe-D6UPvyP1b-4" target="8zskojbhSe-D6UPvyP1b-1" edge="1">
          <mxGeometry relative="1" as="geometry" />
        </mxCell>
        <mxCell id="8zskojbhSe-D6UPvyP1b-4" value="Ngày sinh" style="ellipse;whiteSpace=wrap;html=1;" parent="1" vertex="1">
          <mxGeometry x="420" y="322" width="120" height="80" as="geometry" />
        </mxCell>
        <mxCell id="8zskojbhSe-D6UPvyP1b-28" style="rounded=0;orthogonalLoop=1;jettySize=auto;html=1;exitX=1;exitY=0.5;exitDx=0;exitDy=0;entryX=0;entryY=0;entryDx=0;entryDy=0;endArrow=none;endFill=0;" parent="1" source="8zskojbhSe-D6UPvyP1b-5" target="8zskojbhSe-D6UPvyP1b-1" edge="1">
          <mxGeometry relative="1" as="geometry" />
        </mxCell>
        <mxCell id="8zskojbhSe-D6UPvyP1b-5" value="Số điện thoại" style="ellipse;whiteSpace=wrap;html=1;" parent="1" vertex="1">
          <mxGeometry x="280" y="422" width="120" height="80" as="geometry" />
        </mxCell>
        <mxCell id="8zskojbhSe-D6UPvyP1b-29" style="rounded=0;orthogonalLoop=1;jettySize=auto;html=1;exitX=1;exitY=0.5;exitDx=0;exitDy=0;entryX=0;entryY=0.25;entryDx=0;entryDy=0;endArrow=none;endFill=0;" parent="1" source="8zskojbhSe-D6UPvyP1b-6" target="8zskojbhSe-D6UPvyP1b-1" edge="1">
          <mxGeometry relative="1" as="geometry" />
        </mxCell>
        <mxCell id="8zskojbhSe-D6UPvyP1b-6" value="Email" style="ellipse;whiteSpace=wrap;html=1;" parent="1" vertex="1">
          <mxGeometry x="280" y="523.5" width="120" height="80" as="geometry" />
        </mxCell>
        <mxCell id="8zskojbhSe-D6UPvyP1b-30" style="rounded=0;orthogonalLoop=1;jettySize=auto;html=1;exitX=1;exitY=0.5;exitDx=0;exitDy=0;entryX=0;entryY=0.5;entryDx=0;entryDy=0;endArrow=none;endFill=0;" parent="1" source="8zskojbhSe-D6UPvyP1b-8" target="8zskojbhSe-D6UPvyP1b-1" edge="1">
          <mxGeometry relative="1" as="geometry" />
        </mxCell>
        <mxCell id="8zskojbhSe-D6UPvyP1b-8" value="Địa chỉ" style="ellipse;whiteSpace=wrap;html=1;" parent="1" vertex="1">
          <mxGeometry x="280" y="622" width="120" height="80" as="geometry" />
        </mxCell>
        <mxCell id="8zskojbhSe-D6UPvyP1b-24" style="rounded=0;orthogonalLoop=1;jettySize=auto;html=1;exitX=0.5;exitY=1;exitDx=0;exitDy=0;entryX=0.75;entryY=0;entryDx=0;entryDy=0;endArrow=none;endFill=0;" parent="1" source="8zskojbhSe-D6UPvyP1b-9" target="8zskojbhSe-D6UPvyP1b-1" edge="1">
          <mxGeometry relative="1" as="geometry" />
        </mxCell>
        <mxCell id="8zskojbhSe-D6UPvyP1b-9" value="Chức vụ" style="ellipse;whiteSpace=wrap;html=1;" parent="1" vertex="1">
          <mxGeometry x="560" y="322" width="120" height="80" as="geometry" />
        </mxCell>
        <mxCell id="8zskojbhSe-D6UPvyP1b-25" style="rounded=0;orthogonalLoop=1;jettySize=auto;html=1;exitX=0.5;exitY=1;exitDx=0;exitDy=0;entryX=1;entryY=0;entryDx=0;entryDy=0;endArrow=none;endFill=0;" parent="1" source="8zskojbhSe-D6UPvyP1b-10" target="8zskojbhSe-D6UPvyP1b-1" edge="1">
          <mxGeometry relative="1" as="geometry" />
        </mxCell>
        <mxCell id="8zskojbhSe-D6UPvyP1b-10" value="&lt;u&gt;Mã nhân viên&lt;/u&gt;" style="ellipse;whiteSpace=wrap;html=1;" parent="1" vertex="1">
          <mxGeometry x="700" y="322" width="120" height="80" as="geometry" />
        </mxCell>
        <mxCell id="8zskojbhSe-D6UPvyP1b-32" style="rounded=0;orthogonalLoop=1;jettySize=auto;html=1;exitX=0.5;exitY=0;exitDx=0;exitDy=0;entryX=0.25;entryY=1;entryDx=0;entryDy=0;endArrow=none;endFill=0;" parent="1" source="8zskojbhSe-D6UPvyP1b-11" target="8zskojbhSe-D6UPvyP1b-1" edge="1">
          <mxGeometry relative="1" as="geometry" />
        </mxCell>
        <mxCell id="8zskojbhSe-D6UPvyP1b-11" value="Quê quán" style="ellipse;whiteSpace=wrap;html=1;" parent="1" vertex="1">
          <mxGeometry x="410" y="732" width="120" height="80" as="geometry" />
        </mxCell>
        <mxCell id="8zskojbhSe-D6UPvyP1b-31" style="rounded=0;orthogonalLoop=1;jettySize=auto;html=1;exitX=1;exitY=0;exitDx=0;exitDy=0;entryX=0;entryY=1;entryDx=0;entryDy=0;endArrow=none;endFill=0;" parent="1" source="8zskojbhSe-D6UPvyP1b-12" target="8zskojbhSe-D6UPvyP1b-1" edge="1">
          <mxGeometry relative="1" as="geometry" />
        </mxCell>
        <mxCell id="8zskojbhSe-D6UPvyP1b-12" value="Giới tính" style="ellipse;whiteSpace=wrap;html=1;" parent="1" vertex="1">
          <mxGeometry x="280" y="732" width="120" height="80" as="geometry" />
        </mxCell>
        <mxCell id="8zskojbhSe-D6UPvyP1b-33" style="rounded=0;orthogonalLoop=1;jettySize=auto;html=1;exitX=0.5;exitY=0;exitDx=0;exitDy=0;entryX=0.5;entryY=1;entryDx=0;entryDy=0;endArrow=none;endFill=0;" parent="1" source="8zskojbhSe-D6UPvyP1b-13" target="8zskojbhSe-D6UPvyP1b-1" edge="1">
          <mxGeometry relative="1" as="geometry" />
        </mxCell>
        <mxCell id="8zskojbhSe-D6UPvyP1b-13" value="CCCD/CMND" style="ellipse;whiteSpace=wrap;html=1;" parent="1" vertex="1">
          <mxGeometry x="540" y="732" width="120" height="80" as="geometry" />
        </mxCell>
        <mxCell id="8zskojbhSe-D6UPvyP1b-40" style="rounded=0;orthogonalLoop=1;jettySize=auto;html=1;exitX=0.25;exitY=0;exitDx=0;exitDy=0;entryX=0.5;entryY=0;entryDx=0;entryDy=0;endArrow=none;endFill=0;" parent="1" source="8zskojbhSe-D6UPvyP1b-34" target="8zskojbhSe-D6UPvyP1b-39" edge="1">
          <mxGeometry relative="1" as="geometry" />
        </mxCell>
        <mxCell id="8zskojbhSe-D6UPvyP1b-60" style="rounded=0;orthogonalLoop=1;jettySize=auto;html=1;exitX=0.75;exitY=0;exitDx=0;exitDy=0;entryX=0;entryY=1;entryDx=0;entryDy=0;endArrow=none;endFill=0;" parent="1" source="8zskojbhSe-D6UPvyP1b-34" target="8zskojbhSe-D6UPvyP1b-59" edge="1">
          <mxGeometry relative="1" as="geometry" />
        </mxCell>
        <mxCell id="e5XLD0GjuNZy9hVwTVHU-3" value="" style="rounded=0;orthogonalLoop=1;jettySize=auto;html=1;endArrow=none;endFill=0;" parent="1" source="8zskojbhSe-D6UPvyP1b-34" target="e5XLD0GjuNZy9hVwTVHU-2" edge="1">
          <mxGeometry relative="1" as="geometry" />
        </mxCell>
        <mxCell id="8zskojbhSe-D6UPvyP1b-34" value="Phòng ban" style="rounded=1;whiteSpace=wrap;html=1;" parent="1" vertex="1">
          <mxGeometry x="1006" y="395" width="120" height="60" as="geometry" />
        </mxCell>
        <mxCell id="8zskojbhSe-D6UPvyP1b-38" style="rounded=0;orthogonalLoop=1;jettySize=auto;html=1;exitX=1;exitY=0.5;exitDx=0;exitDy=0;entryX=0;entryY=1;entryDx=0;entryDy=0;endArrow=ERone;endFill=0;" parent="1" source="8zskojbhSe-D6UPvyP1b-36" target="8zskojbhSe-D6UPvyP1b-34" edge="1">
          <mxGeometry relative="1" as="geometry" />
        </mxCell>
        <mxCell id="8zskojbhSe-D6UPvyP1b-36" value="Thuộc" style="rhombus;whiteSpace=wrap;html=1;" parent="1" vertex="1">
          <mxGeometry x="820" y="521.5" width="80" height="50" as="geometry" />
        </mxCell>
        <mxCell id="8zskojbhSe-D6UPvyP1b-39" value="Tên" style="ellipse;whiteSpace=wrap;html=1;" parent="1" vertex="1">
          <mxGeometry x="977" y="270" width="120" height="80" as="geometry" />
        </mxCell>
        <mxCell id="8zskojbhSe-D6UPvyP1b-59" value="&lt;u&gt;Mã phòng ban&lt;/u&gt;" style="ellipse;whiteSpace=wrap;html=1;" parent="1" vertex="1">
          <mxGeometry x="1146" y="280" width="120" height="80" as="geometry" />
        </mxCell>
        <mxCell id="En_QdP-Jk4BKVafIsAyR-14" style="rounded=0;orthogonalLoop=1;jettySize=auto;html=1;exitX=1;exitY=0.5;exitDx=0;exitDy=0;entryX=0;entryY=0.5;entryDx=0;entryDy=0;endArrow=none;endFill=0;" parent="1" source="En_QdP-Jk4BKVafIsAyR-9" target="En_QdP-Jk4BKVafIsAyR-13" edge="1">
          <mxGeometry relative="1" as="geometry" />
        </mxCell>
        <mxCell id="En_QdP-Jk4BKVafIsAyR-17" style="rounded=0;orthogonalLoop=1;jettySize=auto;html=1;exitX=1;exitY=1;exitDx=0;exitDy=0;entryX=0;entryY=0;entryDx=0;entryDy=0;endArrow=none;endFill=0;" parent="1" source="En_QdP-Jk4BKVafIsAyR-9" target="En_QdP-Jk4BKVafIsAyR-15" edge="1">
          <mxGeometry relative="1" as="geometry" />
        </mxCell>
        <mxCell id="En_QdP-Jk4BKVafIsAyR-18" style="rounded=0;orthogonalLoop=1;jettySize=auto;html=1;exitX=0;exitY=1;exitDx=0;exitDy=0;entryX=1;entryY=0;entryDx=0;entryDy=0;endArrow=none;endFill=0;" parent="1" source="En_QdP-Jk4BKVafIsAyR-9" target="En_QdP-Jk4BKVafIsAyR-16" edge="1">
          <mxGeometry relative="1" as="geometry" />
        </mxCell>
        <mxCell id="En_QdP-Jk4BKVafIsAyR-9" value="Lương" style="rounded=1;whiteSpace=wrap;html=1;" parent="1" vertex="1">
          <mxGeometry x="1010" y="773" width="120" height="60" as="geometry" />
        </mxCell>
        <mxCell id="En_QdP-Jk4BKVafIsAyR-13" value="Thời gian" style="ellipse;whiteSpace=wrap;html=1;" parent="1" vertex="1">
          <mxGeometry x="1190" y="763" width="120" height="80" as="geometry" />
        </mxCell>
        <mxCell id="En_QdP-Jk4BKVafIsAyR-15" value="Lương cơ bản" style="ellipse;whiteSpace=wrap;html=1;" parent="1" vertex="1">
          <mxGeometry x="1190" y="898" width="120" height="80" as="geometry" />
        </mxCell>
        <mxCell id="En_QdP-Jk4BKVafIsAyR-16" value="Thưởng" style="ellipse;whiteSpace=wrap;html=1;" parent="1" vertex="1">
          <mxGeometry x="850" y="898" width="120" height="80" as="geometry" />
        </mxCell>
        <mxCell id="En_QdP-Jk4BKVafIsAyR-20" style="rounded=0;orthogonalLoop=1;jettySize=auto;html=1;exitX=0.5;exitY=0;exitDx=0;exitDy=0;entryX=0.5;entryY=1;entryDx=0;entryDy=0;endArrow=none;endFill=0;" parent="1" source="En_QdP-Jk4BKVafIsAyR-19" target="En_QdP-Jk4BKVafIsAyR-9" edge="1">
          <mxGeometry relative="1" as="geometry" />
        </mxCell>
        <mxCell id="En_QdP-Jk4BKVafIsAyR-19" value="Phạt" style="ellipse;whiteSpace=wrap;html=1;" parent="1" vertex="1">
          <mxGeometry x="1020" y="898" width="120" height="80" as="geometry" />
        </mxCell>
        <mxCell id="En_QdP-Jk4BKVafIsAyR-32" style="rounded=0;orthogonalLoop=1;jettySize=auto;html=1;exitX=1;exitY=0.5;exitDx=0;exitDy=0;entryX=0;entryY=0.5;entryDx=0;entryDy=0;endArrow=none;endFill=0;" parent="1" source="En_QdP-Jk4BKVafIsAyR-31" target="En_QdP-Jk4BKVafIsAyR-9" edge="1">
          <mxGeometry relative="1" as="geometry" />
        </mxCell>
        <mxCell id="En_QdP-Jk4BKVafIsAyR-31" value="&lt;u&gt;Mã lương&lt;/u&gt;" style="ellipse;whiteSpace=wrap;html=1;" parent="1" vertex="1">
          <mxGeometry x="850" y="763" width="120" height="80" as="geometry" />
        </mxCell>
        <mxCell id="e5XLD0GjuNZy9hVwTVHU-2" value="Chi nhánh" style="ellipse;whiteSpace=wrap;html=1;" parent="1" vertex="1">
          <mxGeometry x="1186" y="370" width="120" height="80" as="geometry" />
        </mxCell>
        <mxCell id="iyGiSDFssS-rW3oIlz8F-4" style="rounded=0;orthogonalLoop=1;jettySize=auto;html=1;exitX=1;exitY=0.25;exitDx=0;exitDy=0;endArrow=none;endFill=0;" edge="1" parent="1" source="iyGiSDFssS-rW3oIlz8F-1" target="iyGiSDFssS-rW3oIlz8F-2">
          <mxGeometry relative="1" as="geometry" />
        </mxCell>
        <mxCell id="iyGiSDFssS-rW3oIlz8F-5" style="rounded=0;orthogonalLoop=1;jettySize=auto;html=1;exitX=1;exitY=0.75;exitDx=0;exitDy=0;entryX=0;entryY=0.5;entryDx=0;entryDy=0;endArrow=none;endFill=0;" edge="1" parent="1" source="iyGiSDFssS-rW3oIlz8F-1" target="iyGiSDFssS-rW3oIlz8F-3">
          <mxGeometry relative="1" as="geometry" />
        </mxCell>
        <mxCell id="iyGiSDFssS-rW3oIlz8F-1" value="Tài khoản" style="rounded=1;whiteSpace=wrap;html=1;" vertex="1" parent="1">
          <mxGeometry x="1180" y="622" width="120" height="60" as="geometry" />
        </mxCell>
        <mxCell id="iyGiSDFssS-rW3oIlz8F-2" value="Tên tài khoản" style="ellipse;whiteSpace=wrap;html=1;" vertex="1" parent="1">
          <mxGeometry x="1373" y="506.5" width="120" height="80" as="geometry" />
        </mxCell>
        <mxCell id="iyGiSDFssS-rW3oIlz8F-3" value="Mật khẩu" style="ellipse;whiteSpace=wrap;html=1;" vertex="1" parent="1">
          <mxGeometry x="1373" y="622" width="120" height="80" as="geometry" />
        </mxCell>
        <mxCell id="iyGiSDFssS-rW3oIlz8F-7" value="&lt;u&gt;Mã tài khoản&lt;/u&gt;" style="ellipse;whiteSpace=wrap;html=1;" vertex="1" parent="1">
          <mxGeometry x="1223" y="506.5" width="120" height="80" as="geometry" />
        </mxCell>
        <mxCell id="iyGiSDFssS-rW3oIlz8F-8" style="rounded=0;orthogonalLoop=1;jettySize=auto;html=1;exitX=0.75;exitY=0;exitDx=0;exitDy=0;entryX=0.375;entryY=1;entryDx=0;entryDy=0;entryPerimeter=0;endArrow=none;endFill=0;" edge="1" parent="1" source="iyGiSDFssS-rW3oIlz8F-1" target="iyGiSDFssS-rW3oIlz8F-7">
          <mxGeometry relative="1" as="geometry" />
        </mxCell>
        <mxCell id="iyGiSDFssS-rW3oIlz8F-11" style="rounded=0;orthogonalLoop=1;jettySize=auto;html=1;exitX=1;exitY=1;exitDx=0;exitDy=0;entryX=0.25;entryY=0;entryDx=0;entryDy=0;endArrow=none;endFill=0;" edge="1" parent="1" source="iyGiSDFssS-rW3oIlz8F-10" target="iyGiSDFssS-rW3oIlz8F-1">
          <mxGeometry relative="1" as="geometry" />
        </mxCell>
        <mxCell id="iyGiSDFssS-rW3oIlz8F-10" value="" style="ellipse;whiteSpace=wrap;html=1;" vertex="1" parent="1">
          <mxGeometry x="1070" y="502" width="136" height="93" as="geometry" />
        </mxCell>
        <mxCell id="iyGiSDFssS-rW3oIlz8F-9" value="Quyền" style="ellipse;whiteSpace=wrap;html=1;" vertex="1" parent="1">
          <mxGeometry x="1078" y="508.5" width="120" height="80" as="geometry" />
        </mxCell>
      </root>
    </mxGraphModel>
  </diagram>
</mxfile>
